<mxfile host="Electron" agent="Mozilla/5.0 (Macintosh; Intel Mac OS X 10_15_7) AppleWebKit/537.36 (KHTML, like Gecko) draw.io/24.7.8 Chrome/128.0.6613.36 Electron/32.0.1 Safari/537.36" version="24.7.8">
  <diagram name="Page-1" id="-73E4tfRFzyHKhubZ6cw">
    <mxGraphModel dx="2329" dy="798" grid="1" gridSize="10" guides="1" tooltips="1" connect="1" arrows="1" fold="1" page="0" pageScale="1" pageWidth="850" pageHeight="1100" math="0" shadow="0">
      <root>
        <mxCell id="0" />
        <mxCell id="1" parent="0" />
        <mxCell id="ncc7fTWRJFvSIS5peWu2-39" value="" style="rounded=1;whiteSpace=wrap;html=1;sketch=1;hachureGap=4;jiggle=2;curveFitting=1;fontFamily=Architects Daughter;fontSource=https%3A%2F%2Ffonts.googleapis.com%2Fcss%3Ffamily%3DArchitects%2BDaughter;" vertex="1" parent="1">
          <mxGeometry x="630" y="470" width="120" height="510" as="geometry" />
        </mxCell>
        <mxCell id="ncc7fTWRJFvSIS5peWu2-1" value="&lt;div&gt;Функциональные требования&lt;/div&gt;&lt;div&gt;&lt;br&gt;&lt;/div&gt;1. Пациенты одинаковые&lt;div&gt;2. Врачи будут разными&lt;/div&gt;&lt;div&gt;3. Уведомления приходят на почту и на смс.&lt;/div&gt;&lt;div&gt;4. У всех пациентов одинаковые права, у всех врачей так же&lt;/div&gt;&lt;div&gt;5. Нет предложки у поиска&lt;/div&gt;&lt;div&gt;6. У пользователя список врачей этой больницы на карточке больницы&lt;/div&gt;&lt;div&gt;7. У каждого врача выводить свободные слоты на разные даты и время&lt;/div&gt;&lt;div&gt;8ю&amp;nbsp;&lt;span style=&quot;background-color: initial;&quot;&gt;&amp;nbsp;&lt;/span&gt;&lt;span style=&quot;background-color: initial;&quot;&gt;Врач заходит в личный кабинет, видит календарь и кто куда записан&lt;/span&gt;&lt;/div&gt;&lt;div&gt;&lt;br&gt;&lt;/div&gt;&lt;div&gt;&lt;br&gt;&lt;/div&gt;&lt;div&gt;Нефунк треб&lt;/div&gt;&lt;div&gt;1.&amp;nbsp;&lt;span style=&quot;background-color: initial;&quot;&gt;Минут 5 от записи до принятия&lt;/span&gt;&lt;/div&gt;&lt;div&gt;&lt;span style=&quot;background-color: initial;&quot;&gt;2. Пациентов посмотреть записи 10000 в день&lt;/span&gt;&lt;/div&gt;&lt;div&gt;&lt;span style=&quot;background-color: initial;&quot;&gt;3. Записей в день 1000&lt;/span&gt;&lt;/div&gt;&lt;div&gt;&lt;span style=&quot;background-color: initial;&quot;&gt;4. Клиент ждет 200 мс и врач столько же&lt;/span&gt;&lt;/div&gt;" style="text;html=1;align=center;verticalAlign=middle;resizable=0;points=[];autosize=1;strokeColor=none;fillColor=none;fontFamily=Architects Daughter;fontSource=https%3A%2F%2Ffonts.googleapis.com%2Fcss%3Ffamily%3DArchitects%2BDaughter;" vertex="1" parent="1">
          <mxGeometry x="-990" y="93" width="410" height="260" as="geometry" />
        </mxCell>
        <mxCell id="ncc7fTWRJFvSIS5peWu2-2" value="API пользователя&lt;div&gt;&lt;br&gt;&lt;/div&gt;&lt;div&gt;1. Получить больницу информацию о больнице по ее номеру или названию&lt;/div&gt;&lt;div&gt;2.&amp;nbsp; Получить информацию о врачах для конкретной больницы&lt;/div&gt;&lt;div&gt;3. Получить инфу о враче и о свободных слотах для конкретного врача&lt;/div&gt;&lt;div&gt;4. Выбрать дату время и записаться&lt;/div&gt;&lt;div&gt;5. Получил уведомление&lt;/div&gt;&lt;div&gt;&lt;br&gt;&lt;/div&gt;&lt;div&gt;Api врача&lt;/div&gt;&lt;div&gt;&lt;br&gt;&lt;/div&gt;&lt;div&gt;1. Получить список записанных на него пациентов&lt;/div&gt;" style="text;html=1;align=center;verticalAlign=middle;resizable=0;points=[];autosize=1;strokeColor=none;fillColor=none;fontFamily=Architects Daughter;fontSource=https%3A%2F%2Ffonts.googleapis.com%2Fcss%3Ffamily%3DArchitects%2BDaughter;" vertex="1" parent="1">
          <mxGeometry x="-530" y="63" width="420" height="170" as="geometry" />
        </mxCell>
        <mxCell id="ncc7fTWRJFvSIS5peWu2-10" style="edgeStyle=orthogonalEdgeStyle;rounded=0;sketch=1;hachureGap=4;jiggle=2;curveFitting=1;orthogonalLoop=1;jettySize=auto;html=1;entryX=0;entryY=0.5;entryDx=0;entryDy=0;fontFamily=Architects Daughter;fontSource=https%3A%2F%2Ffonts.googleapis.com%2Fcss%3Ffamily%3DArchitects%2BDaughter;" edge="1" parent="1" source="ncc7fTWRJFvSIS5peWu2-4" target="ncc7fTWRJFvSIS5peWu2-8">
          <mxGeometry relative="1" as="geometry" />
        </mxCell>
        <mxCell id="ncc7fTWRJFvSIS5peWu2-11" value="Получить токен" style="edgeLabel;html=1;align=center;verticalAlign=middle;resizable=0;points=[];sketch=1;hachureGap=4;jiggle=2;curveFitting=1;fontFamily=Architects Daughter;fontSource=https%3A%2F%2Ffonts.googleapis.com%2Fcss%3Ffamily%3DArchitects%2BDaughter;" vertex="1" connectable="0" parent="ncc7fTWRJFvSIS5peWu2-10">
          <mxGeometry x="0.1042" y="-1" relative="1" as="geometry">
            <mxPoint as="offset" />
          </mxGeometry>
        </mxCell>
        <mxCell id="ncc7fTWRJFvSIS5peWu2-13" style="edgeStyle=orthogonalEdgeStyle;rounded=0;sketch=1;hachureGap=4;jiggle=2;curveFitting=1;orthogonalLoop=1;jettySize=auto;html=1;entryX=0;entryY=0.5;entryDx=0;entryDy=0;fontFamily=Architects Daughter;fontSource=https%3A%2F%2Ffonts.googleapis.com%2Fcss%3Ffamily%3DArchitects%2BDaughter;" edge="1" parent="1" source="ncc7fTWRJFvSIS5peWu2-4" target="ncc7fTWRJFvSIS5peWu2-12">
          <mxGeometry relative="1" as="geometry" />
        </mxCell>
        <mxCell id="ncc7fTWRJFvSIS5peWu2-4" value="Frontend" style="rounded=0;whiteSpace=wrap;html=1;sketch=1;hachureGap=4;jiggle=2;curveFitting=1;fontFamily=Architects Daughter;fontSource=https%3A%2F%2Ffonts.googleapis.com%2Fcss%3Ffamily%3DArchitects%2BDaughter;" vertex="1" parent="1">
          <mxGeometry x="-300" y="673" width="120" height="60" as="geometry" />
        </mxCell>
        <mxCell id="ncc7fTWRJFvSIS5peWu2-6" style="edgeStyle=orthogonalEdgeStyle;rounded=0;sketch=1;hachureGap=4;jiggle=2;curveFitting=1;orthogonalLoop=1;jettySize=auto;html=1;fontFamily=Architects Daughter;fontSource=https%3A%2F%2Ffonts.googleapis.com%2Fcss%3Ffamily%3DArchitects%2BDaughter;entryX=0;entryY=0.5;entryDx=0;entryDy=0;" edge="1" parent="1" source="ncc7fTWRJFvSIS5peWu2-5" target="ncc7fTWRJFvSIS5peWu2-4">
          <mxGeometry relative="1" as="geometry">
            <mxPoint x="-310" y="700" as="targetPoint" />
          </mxGeometry>
        </mxCell>
        <mxCell id="ncc7fTWRJFvSIS5peWu2-5" value="Actor" style="shape=umlActor;verticalLabelPosition=bottom;verticalAlign=top;html=1;outlineConnect=0;sketch=1;hachureGap=4;jiggle=2;curveFitting=1;fontFamily=Architects Daughter;fontSource=https%3A%2F%2Ffonts.googleapis.com%2Fcss%3Ffamily%3DArchitects%2BDaughter;" vertex="1" parent="1">
          <mxGeometry x="-450" y="670" width="30" height="60" as="geometry" />
        </mxCell>
        <mxCell id="ncc7fTWRJFvSIS5peWu2-8" value="Auth service" style="rounded=0;whiteSpace=wrap;html=1;sketch=1;hachureGap=4;jiggle=2;curveFitting=1;fontFamily=Architects Daughter;fontSource=https%3A%2F%2Ffonts.googleapis.com%2Fcss%3Ffamily%3DArchitects%2BDaughter;" vertex="1" parent="1">
          <mxGeometry x="-50" y="520" width="120" height="60" as="geometry" />
        </mxCell>
        <mxCell id="ncc7fTWRJFvSIS5peWu2-15" style="edgeStyle=orthogonalEdgeStyle;rounded=0;sketch=1;hachureGap=4;jiggle=2;curveFitting=1;orthogonalLoop=1;jettySize=auto;html=1;entryX=0;entryY=0.5;entryDx=0;entryDy=0;fontFamily=Architects Daughter;fontSource=https%3A%2F%2Ffonts.googleapis.com%2Fcss%3Ffamily%3DArchitects%2BDaughter;" edge="1" parent="1" source="ncc7fTWRJFvSIS5peWu2-12" target="ncc7fTWRJFvSIS5peWu2-14">
          <mxGeometry relative="1" as="geometry" />
        </mxCell>
        <mxCell id="ncc7fTWRJFvSIS5peWu2-12" value="LB" style="rounded=0;whiteSpace=wrap;html=1;sketch=1;hachureGap=4;jiggle=2;curveFitting=1;fontFamily=Architects Daughter;fontSource=https%3A%2F%2Ffonts.googleapis.com%2Fcss%3Ffamily%3DArchitects%2BDaughter;" vertex="1" parent="1">
          <mxGeometry x="-50" y="673" width="120" height="60" as="geometry" />
        </mxCell>
        <mxCell id="ncc7fTWRJFvSIS5peWu2-16" style="edgeStyle=orthogonalEdgeStyle;rounded=0;sketch=1;hachureGap=4;jiggle=2;curveFitting=1;orthogonalLoop=1;jettySize=auto;html=1;entryX=1;entryY=0.5;entryDx=0;entryDy=0;fontFamily=Architects Daughter;fontSource=https%3A%2F%2Ffonts.googleapis.com%2Fcss%3Ffamily%3DArchitects%2BDaughter;" edge="1" parent="1" source="ncc7fTWRJFvSIS5peWu2-14" target="ncc7fTWRJFvSIS5peWu2-8">
          <mxGeometry relative="1" as="geometry" />
        </mxCell>
        <mxCell id="ncc7fTWRJFvSIS5peWu2-17" value="Проверять токен пользователя" style="edgeLabel;html=1;align=center;verticalAlign=middle;resizable=0;points=[];sketch=1;hachureGap=4;jiggle=2;curveFitting=1;fontFamily=Architects Daughter;fontSource=https%3A%2F%2Ffonts.googleapis.com%2Fcss%3Ffamily%3DArchitects%2BDaughter;" vertex="1" connectable="0" parent="ncc7fTWRJFvSIS5peWu2-16">
          <mxGeometry x="0.1638" y="2" relative="1" as="geometry">
            <mxPoint as="offset" />
          </mxGeometry>
        </mxCell>
        <mxCell id="ncc7fTWRJFvSIS5peWu2-24" style="edgeStyle=orthogonalEdgeStyle;rounded=0;sketch=1;hachureGap=4;jiggle=2;curveFitting=1;orthogonalLoop=1;jettySize=auto;html=1;entryX=0;entryY=0.5;entryDx=0;entryDy=0;fontFamily=Architects Daughter;fontSource=https%3A%2F%2Ffonts.googleapis.com%2Fcss%3Ffamily%3DArchitects%2BDaughter;" edge="1" parent="1" source="ncc7fTWRJFvSIS5peWu2-14" target="ncc7fTWRJFvSIS5peWu2-18">
          <mxGeometry relative="1" as="geometry" />
        </mxCell>
        <mxCell id="ncc7fTWRJFvSIS5peWu2-25" style="edgeStyle=orthogonalEdgeStyle;rounded=0;sketch=1;hachureGap=4;jiggle=2;curveFitting=1;orthogonalLoop=1;jettySize=auto;html=1;entryX=0;entryY=0.5;entryDx=0;entryDy=0;fontFamily=Architects Daughter;fontSource=https%3A%2F%2Ffonts.googleapis.com%2Fcss%3Ffamily%3DArchitects%2BDaughter;" edge="1" parent="1" source="ncc7fTWRJFvSIS5peWu2-14" target="ncc7fTWRJFvSIS5peWu2-19">
          <mxGeometry relative="1" as="geometry" />
        </mxCell>
        <mxCell id="ncc7fTWRJFvSIS5peWu2-26" style="edgeStyle=orthogonalEdgeStyle;rounded=0;sketch=1;hachureGap=4;jiggle=2;curveFitting=1;orthogonalLoop=1;jettySize=auto;html=1;entryX=0;entryY=0.5;entryDx=0;entryDy=0;fontFamily=Architects Daughter;fontSource=https%3A%2F%2Ffonts.googleapis.com%2Fcss%3Ffamily%3DArchitects%2BDaughter;" edge="1" parent="1" source="ncc7fTWRJFvSIS5peWu2-14" target="ncc7fTWRJFvSIS5peWu2-20">
          <mxGeometry relative="1" as="geometry" />
        </mxCell>
        <mxCell id="ncc7fTWRJFvSIS5peWu2-27" style="edgeStyle=orthogonalEdgeStyle;rounded=0;sketch=1;hachureGap=4;jiggle=2;curveFitting=1;orthogonalLoop=1;jettySize=auto;html=1;entryX=0;entryY=0.5;entryDx=0;entryDy=0;fontFamily=Architects Daughter;fontSource=https%3A%2F%2Ffonts.googleapis.com%2Fcss%3Ffamily%3DArchitects%2BDaughter;" edge="1" parent="1" source="ncc7fTWRJFvSIS5peWu2-14" target="ncc7fTWRJFvSIS5peWu2-21">
          <mxGeometry relative="1" as="geometry" />
        </mxCell>
        <mxCell id="ncc7fTWRJFvSIS5peWu2-28" style="edgeStyle=orthogonalEdgeStyle;rounded=0;sketch=1;hachureGap=4;jiggle=2;curveFitting=1;orthogonalLoop=1;jettySize=auto;html=1;entryX=0;entryY=0.5;entryDx=0;entryDy=0;fontFamily=Architects Daughter;fontSource=https%3A%2F%2Ffonts.googleapis.com%2Fcss%3Ffamily%3DArchitects%2BDaughter;" edge="1" parent="1" source="ncc7fTWRJFvSIS5peWu2-14" target="ncc7fTWRJFvSIS5peWu2-22">
          <mxGeometry relative="1" as="geometry" />
        </mxCell>
        <mxCell id="ncc7fTWRJFvSIS5peWu2-14" value="API Gateway" style="rounded=0;whiteSpace=wrap;html=1;sketch=1;hachureGap=4;jiggle=2;curveFitting=1;fontFamily=Architects Daughter;fontSource=https%3A%2F%2Ffonts.googleapis.com%2Fcss%3Ffamily%3DArchitects%2BDaughter;" vertex="1" parent="1">
          <mxGeometry x="200" y="673" width="120" height="60" as="geometry" />
        </mxCell>
        <mxCell id="ncc7fTWRJFvSIS5peWu2-50" style="edgeStyle=orthogonalEdgeStyle;rounded=0;sketch=1;hachureGap=4;jiggle=2;curveFitting=1;orthogonalLoop=1;jettySize=auto;html=1;entryX=0;entryY=0.5;entryDx=0;entryDy=0;fontFamily=Architects Daughter;fontSource=https%3A%2F%2Ffonts.googleapis.com%2Fcss%3Ffamily%3DArchitects%2BDaughter;" edge="1" parent="1" source="ncc7fTWRJFvSIS5peWu2-18" target="ncc7fTWRJFvSIS5peWu2-48">
          <mxGeometry relative="1" as="geometry" />
        </mxCell>
        <mxCell id="ncc7fTWRJFvSIS5peWu2-18" value="Записи пациентов" style="rounded=0;whiteSpace=wrap;html=1;sketch=1;hachureGap=4;jiggle=2;curveFitting=1;fontFamily=Architects Daughter;fontSource=https%3A%2F%2Ffonts.googleapis.com%2Fcss%3Ffamily%3DArchitects%2BDaughter;" vertex="1" parent="1">
          <mxGeometry x="440" y="500" width="120" height="60" as="geometry" />
        </mxCell>
        <mxCell id="ncc7fTWRJFvSIS5peWu2-19" value="Посещений" style="rounded=0;whiteSpace=wrap;html=1;sketch=1;hachureGap=4;jiggle=2;curveFitting=1;fontFamily=Architects Daughter;fontSource=https%3A%2F%2Ffonts.googleapis.com%2Fcss%3Ffamily%3DArchitects%2BDaughter;" vertex="1" parent="1">
          <mxGeometry x="440" y="590" width="120" height="60" as="geometry" />
        </mxCell>
        <mxCell id="ncc7fTWRJFvSIS5peWu2-20" value="Рецептов" style="rounded=0;whiteSpace=wrap;html=1;sketch=1;hachureGap=4;jiggle=2;curveFitting=1;fontFamily=Architects Daughter;fontSource=https%3A%2F%2Ffonts.googleapis.com%2Fcss%3Ffamily%3DArchitects%2BDaughter;" vertex="1" parent="1">
          <mxGeometry x="440" y="680" width="120" height="60" as="geometry" />
        </mxCell>
        <mxCell id="ncc7fTWRJFvSIS5peWu2-52" style="edgeStyle=orthogonalEdgeStyle;rounded=0;sketch=1;hachureGap=4;jiggle=2;curveFitting=1;orthogonalLoop=1;jettySize=auto;html=1;entryX=0;entryY=0.5;entryDx=0;entryDy=0;fontFamily=Architects Daughter;fontSource=https%3A%2F%2Ffonts.googleapis.com%2Fcss%3Ffamily%3DArchitects%2BDaughter;" edge="1" parent="1" source="ncc7fTWRJFvSIS5peWu2-21" target="ncc7fTWRJFvSIS5peWu2-48">
          <mxGeometry relative="1" as="geometry" />
        </mxCell>
        <mxCell id="ncc7fTWRJFvSIS5peWu2-21" value="Анализов" style="rounded=0;whiteSpace=wrap;html=1;sketch=1;hachureGap=4;jiggle=2;curveFitting=1;fontFamily=Architects Daughter;fontSource=https%3A%2F%2Ffonts.googleapis.com%2Fcss%3Ffamily%3DArchitects%2BDaughter;" vertex="1" parent="1">
          <mxGeometry x="440" y="780" width="120" height="60" as="geometry" />
        </mxCell>
        <mxCell id="ncc7fTWRJFvSIS5peWu2-54" style="edgeStyle=orthogonalEdgeStyle;rounded=0;sketch=1;hachureGap=4;jiggle=2;curveFitting=1;orthogonalLoop=1;jettySize=auto;html=1;entryX=0;entryY=0.5;entryDx=0;entryDy=0;fontFamily=Architects Daughter;fontSource=https%3A%2F%2Ffonts.googleapis.com%2Fcss%3Ffamily%3DArchitects%2BDaughter;" edge="1" parent="1" source="ncc7fTWRJFvSIS5peWu2-22" target="ncc7fTWRJFvSIS5peWu2-48">
          <mxGeometry relative="1" as="geometry" />
        </mxCell>
        <mxCell id="ncc7fTWRJFvSIS5peWu2-22" value="Исследований" style="rounded=0;whiteSpace=wrap;html=1;sketch=1;hachureGap=4;jiggle=2;curveFitting=1;fontFamily=Architects Daughter;fontSource=https%3A%2F%2Ffonts.googleapis.com%2Fcss%3Ffamily%3DArchitects%2BDaughter;" vertex="1" parent="1">
          <mxGeometry x="440" y="880" width="120" height="60" as="geometry" />
        </mxCell>
        <mxCell id="ncc7fTWRJFvSIS5peWu2-44" style="edgeStyle=orthogonalEdgeStyle;rounded=0;sketch=1;hachureGap=4;jiggle=2;curveFitting=1;orthogonalLoop=1;jettySize=auto;html=1;entryX=0.5;entryY=1;entryDx=0;entryDy=0;fontFamily=Architects Daughter;fontSource=https%3A%2F%2Ffonts.googleapis.com%2Fcss%3Ffamily%3DArchitects%2BDaughter;" edge="1" parent="1" source="ncc7fTWRJFvSIS5peWu2-23" target="ncc7fTWRJFvSIS5peWu2-43">
          <mxGeometry relative="1" as="geometry" />
        </mxCell>
        <mxCell id="ncc7fTWRJFvSIS5peWu2-46" style="edgeStyle=orthogonalEdgeStyle;rounded=0;sketch=1;hachureGap=4;jiggle=2;curveFitting=1;orthogonalLoop=1;jettySize=auto;html=1;entryX=0.5;entryY=1;entryDx=0;entryDy=0;fontFamily=Architects Daughter;fontSource=https%3A%2F%2Ffonts.googleapis.com%2Fcss%3Ffamily%3DArchitects%2BDaughter;" edge="1" parent="1" source="ncc7fTWRJFvSIS5peWu2-23" target="ncc7fTWRJFvSIS5peWu2-45">
          <mxGeometry relative="1" as="geometry" />
        </mxCell>
        <mxCell id="ncc7fTWRJFvSIS5peWu2-23" value="Уведомлений" style="rounded=0;whiteSpace=wrap;html=1;sketch=1;hachureGap=4;jiggle=2;curveFitting=1;fontFamily=Architects Daughter;fontSource=https%3A%2F%2Ffonts.googleapis.com%2Fcss%3Ffamily%3DArchitects%2BDaughter;" vertex="1" parent="1">
          <mxGeometry x="840" y="260" width="120" height="60" as="geometry" />
        </mxCell>
        <mxCell id="ncc7fTWRJFvSIS5peWu2-29" value="схема сервиса записи" style="shape=cylinder3;whiteSpace=wrap;html=1;boundedLbl=1;backgroundOutline=1;size=15;sketch=1;hachureGap=4;jiggle=2;curveFitting=1;fontFamily=Architects Daughter;fontSource=https%3A%2F%2Ffonts.googleapis.com%2Fcss%3Ffamily%3DArchitects%2BDaughter;" vertex="1" parent="1">
          <mxGeometry x="660" y="490" width="60" height="80" as="geometry" />
        </mxCell>
        <mxCell id="ncc7fTWRJFvSIS5peWu2-30" style="edgeStyle=orthogonalEdgeStyle;rounded=0;sketch=1;hachureGap=4;jiggle=2;curveFitting=1;orthogonalLoop=1;jettySize=auto;html=1;entryX=0;entryY=0.5;entryDx=0;entryDy=0;entryPerimeter=0;fontFamily=Architects Daughter;fontSource=https%3A%2F%2Ffonts.googleapis.com%2Fcss%3Ffamily%3DArchitects%2BDaughter;" edge="1" parent="1" source="ncc7fTWRJFvSIS5peWu2-18" target="ncc7fTWRJFvSIS5peWu2-29">
          <mxGeometry relative="1" as="geometry" />
        </mxCell>
        <mxCell id="ncc7fTWRJFvSIS5peWu2-31" value="схема сервиса посещение" style="shape=cylinder3;whiteSpace=wrap;html=1;boundedLbl=1;backgroundOutline=1;size=15;sketch=1;hachureGap=4;jiggle=2;curveFitting=1;fontFamily=Architects Daughter;fontSource=https%3A%2F%2Ffonts.googleapis.com%2Fcss%3Ffamily%3DArchitects%2BDaughter;" vertex="1" parent="1">
          <mxGeometry x="660" y="580" width="60" height="80" as="geometry" />
        </mxCell>
        <mxCell id="ncc7fTWRJFvSIS5peWu2-32" style="edgeStyle=orthogonalEdgeStyle;rounded=0;sketch=1;hachureGap=4;jiggle=2;curveFitting=1;orthogonalLoop=1;jettySize=auto;html=1;entryX=0;entryY=0.5;entryDx=0;entryDy=0;entryPerimeter=0;fontFamily=Architects Daughter;fontSource=https%3A%2F%2Ffonts.googleapis.com%2Fcss%3Ffamily%3DArchitects%2BDaughter;" edge="1" parent="1" target="ncc7fTWRJFvSIS5peWu2-31">
          <mxGeometry relative="1" as="geometry">
            <mxPoint x="560" y="620" as="sourcePoint" />
          </mxGeometry>
        </mxCell>
        <mxCell id="ncc7fTWRJFvSIS5peWu2-33" value="схема сервиса рецептов" style="shape=cylinder3;whiteSpace=wrap;html=1;boundedLbl=1;backgroundOutline=1;size=15;sketch=1;hachureGap=4;jiggle=2;curveFitting=1;fontFamily=Architects Daughter;fontSource=https%3A%2F%2Ffonts.googleapis.com%2Fcss%3Ffamily%3DArchitects%2BDaughter;" vertex="1" parent="1">
          <mxGeometry x="660" y="673" width="60" height="80" as="geometry" />
        </mxCell>
        <mxCell id="ncc7fTWRJFvSIS5peWu2-34" style="edgeStyle=orthogonalEdgeStyle;rounded=0;sketch=1;hachureGap=4;jiggle=2;curveFitting=1;orthogonalLoop=1;jettySize=auto;html=1;entryX=0;entryY=0.5;entryDx=0;entryDy=0;entryPerimeter=0;fontFamily=Architects Daughter;fontSource=https%3A%2F%2Ffonts.googleapis.com%2Fcss%3Ffamily%3DArchitects%2BDaughter;" edge="1" parent="1" target="ncc7fTWRJFvSIS5peWu2-33">
          <mxGeometry relative="1" as="geometry">
            <mxPoint x="560" y="713" as="sourcePoint" />
          </mxGeometry>
        </mxCell>
        <mxCell id="ncc7fTWRJFvSIS5peWu2-35" value="схема сервиса анализов" style="shape=cylinder3;whiteSpace=wrap;html=1;boundedLbl=1;backgroundOutline=1;size=15;sketch=1;hachureGap=4;jiggle=2;curveFitting=1;fontFamily=Architects Daughter;fontSource=https%3A%2F%2Ffonts.googleapis.com%2Fcss%3Ffamily%3DArchitects%2BDaughter;" vertex="1" parent="1">
          <mxGeometry x="660" y="770" width="60" height="80" as="geometry" />
        </mxCell>
        <mxCell id="ncc7fTWRJFvSIS5peWu2-36" style="edgeStyle=orthogonalEdgeStyle;rounded=0;sketch=1;hachureGap=4;jiggle=2;curveFitting=1;orthogonalLoop=1;jettySize=auto;html=1;entryX=0;entryY=0.5;entryDx=0;entryDy=0;entryPerimeter=0;fontFamily=Architects Daughter;fontSource=https%3A%2F%2Ffonts.googleapis.com%2Fcss%3Ffamily%3DArchitects%2BDaughter;" edge="1" parent="1" target="ncc7fTWRJFvSIS5peWu2-35">
          <mxGeometry relative="1" as="geometry">
            <mxPoint x="560" y="810" as="sourcePoint" />
          </mxGeometry>
        </mxCell>
        <mxCell id="ncc7fTWRJFvSIS5peWu2-37" value="схема сервиса исследований" style="shape=cylinder3;whiteSpace=wrap;html=1;boundedLbl=1;backgroundOutline=1;size=15;sketch=1;hachureGap=4;jiggle=2;curveFitting=1;fontFamily=Architects Daughter;fontSource=https%3A%2F%2Ffonts.googleapis.com%2Fcss%3Ffamily%3DArchitects%2BDaughter;" vertex="1" parent="1">
          <mxGeometry x="660" y="870" width="60" height="80" as="geometry" />
        </mxCell>
        <mxCell id="ncc7fTWRJFvSIS5peWu2-38" style="edgeStyle=orthogonalEdgeStyle;rounded=0;sketch=1;hachureGap=4;jiggle=2;curveFitting=1;orthogonalLoop=1;jettySize=auto;html=1;entryX=0;entryY=0.5;entryDx=0;entryDy=0;entryPerimeter=0;fontFamily=Architects Daughter;fontSource=https%3A%2F%2Ffonts.googleapis.com%2Fcss%3Ffamily%3DArchitects%2BDaughter;" edge="1" parent="1" target="ncc7fTWRJFvSIS5peWu2-37">
          <mxGeometry relative="1" as="geometry">
            <mxPoint x="560" y="910" as="sourcePoint" />
          </mxGeometry>
        </mxCell>
        <mxCell id="ncc7fTWRJFvSIS5peWu2-43" value="SMTP" style="rounded=0;whiteSpace=wrap;html=1;sketch=1;hachureGap=4;jiggle=2;curveFitting=1;fontFamily=Architects Daughter;fontSource=https%3A%2F%2Ffonts.googleapis.com%2Fcss%3Ffamily%3DArchitects%2BDaughter;" vertex="1" parent="1">
          <mxGeometry x="1000" y="30" width="120" height="60" as="geometry" />
        </mxCell>
        <mxCell id="ncc7fTWRJFvSIS5peWu2-45" value="Сервис отправки смс" style="rounded=0;whiteSpace=wrap;html=1;sketch=1;hachureGap=4;jiggle=2;curveFitting=1;fontFamily=Architects Daughter;fontSource=https%3A%2F%2Ffonts.googleapis.com%2Fcss%3Ffamily%3DArchitects%2BDaughter;" vertex="1" parent="1">
          <mxGeometry x="1160" y="30" width="120" height="60" as="geometry" />
        </mxCell>
        <mxCell id="ncc7fTWRJFvSIS5peWu2-49" style="edgeStyle=orthogonalEdgeStyle;rounded=0;sketch=1;hachureGap=4;jiggle=2;curveFitting=1;orthogonalLoop=1;jettySize=auto;html=1;entryX=0;entryY=0.5;entryDx=0;entryDy=0;fontFamily=Architects Daughter;fontSource=https%3A%2F%2Ffonts.googleapis.com%2Fcss%3Ffamily%3DArchitects%2BDaughter;" edge="1" parent="1" source="ncc7fTWRJFvSIS5peWu2-48" target="ncc7fTWRJFvSIS5peWu2-23">
          <mxGeometry relative="1" as="geometry" />
        </mxCell>
        <mxCell id="ncc7fTWRJFvSIS5peWu2-48" value="Брокер" style="rounded=0;whiteSpace=wrap;html=1;sketch=1;hachureGap=4;jiggle=2;curveFitting=1;fontFamily=Architects Daughter;fontSource=https%3A%2F%2Ffonts.googleapis.com%2Fcss%3Ffamily%3DArchitects%2BDaughter;" vertex="1" parent="1">
          <mxGeometry x="630" y="260" width="120" height="60" as="geometry" />
        </mxCell>
      </root>
    </mxGraphModel>
  </diagram>
</mxfile>
